<svg height="128" viewBox="0 0 128 128" width="128" xmlns="http://www.w3.org/2000/svg" xmlns:xlink="http://www.w3.org/1999/xlink"><clipPath id="a"><path d="m0 720h864v-720h-864z" transform="translate(-203.2402 -110.44041)"/></clipPath><clipPath id="b"><path d="m0 720h864v-720h-864z" transform="translate(-181.3999 -110.9199)"/></clipPath><clipPath id="c"><path d="m0 720h864v-720h-864z" transform="translate(-173.96001 -55.719699)"/></clipPath><clipPath id="d"><path d="m0 720h864v-720h-864z" transform="translate(-196.6401 -136.36041)"/></clipPath><clipPath id="e"><path d="m0 720h864v-720h-864z" transform="translate(-222.2002 -131.6797)"/></clipPath><clipPath id="f"><path d="m0 720h864v-720h-864z" transform="translate(-133.6401 -354.51951)"/></clipPath><clipPath id="g"><path d="m0 720h864v-720h-864z" transform="translate(-739.16022 -354.51951)"/></clipPath><path d="m32 4h64a28 28 45 0 1 28 28v64a28 28 135 0 1 -28 28h-64a28 28 45 0 1 -28-28v-64a28 28 135 0 1 28-28z" fill="#fff" height="120" stroke-linecap="round" stroke-linejoin="round" stroke-width="6.02505" transform="matrix(1.0666667 0 0 1.0666667 -4.266667 -4.266667)" width="120" x="4" y="4"/><path clip-path="url(#a)" d="m0 0s15.36 29.76 30 51.119c14.64 21.36 43.92 62.16 60.24 83.04 16.32 20.881 49.68 59.521 71.52 81.601s46.32 44.4 64.08 59.28c17.76 14.879 51.12 40.319 72.96 55.2 21.84 14.88 72.479 44.639 93.599 56.4 21.121 11.759 85.201 52.56 99.841 65.52 0 0-32.64-18.96-54.24-30.721-21.601-11.759-88.32-48.239-111.36-60.96-23.04-12.719-60-36.239-87.6-56.64-27.6-20.4-55.2-45.599-72.72-63.6-17.52-18-61.2-69.12-73.44-84.479-12.24-15.361-57.84-78.96-72-101.04s-32.16-49.68-32.16-49.68z" transform="matrix(.1560549 0 0 -.1560549 30.367054 102.089732)"/><path clip-path="url(#b)" d="m0 0 24.24-10.92-5.04-10.62-23.94 11.52z" transform="matrix(.1560549 0 0 -.1560549 26.958768 102.014904)"/><path clip-path="url(#c)" d="m0 0c-3.28 0-5.94 2.66-5.94 5.94 0 3.281 2.66 5.94 5.94 5.94 3.281 0 5.94-2.659 5.94-5.94 0-3.28-2.659-5.94-5.94-5.94m.36 36.54c-5.04-8.46-16.2-24.12-16.2-24.12 6.66-21.96-1.26-38.34-1.26-38.34 11.52 17.641 29.7 22.5 29.7 22.5 3.06 13.141 8.82 30.601 8.82 30.601z" transform="matrix(.1560549 0 0 -.1560549 25.797736 110.629167)"/><path clip-path="url(#d)" d="m0 0s27.72 45 48.6 74.52 66.96 89.639 92.88 118.799 58.32 63.001 83.52 81.721 73.08 49.32 95.76 62.64 61.92 32.4 90 46.799c28.08 14.401 66.24 34.201 110.52 73.081 0 0-37.08-21.96-48.6-28.081l21.6 30.601-42.12-38.88 28.799 44.64s-59.759-2.52-125.639-31.68c0 0-28.08-33.12-46.441-73.08 0 0-1.439 17.64 15.121 56.879 0 0-45.72-21.959-53.28-25.919s-19.44-16.561-30.96-61.561c0 0-6.12 12.96 10.8 51.121 0 0-28.44-15.84-56.52-38.88s-48.6-44.64-56.52-59.4-17.64-50.401-10.44-87.841c0 0-14.4 8.641-8.64 55.081 0 0-35.64-31.321-52.92-52.56-17.28-21.24-25.92-38.88-30.96-63.36-5.04-24.481-14.4-65.161-14.4-65.161s-5.76 9 .72 42.121c0 0-14.04-24.84-9.72-61.201 0 0-8.28 1.441-7.56 46.441 0 0-21.6-59.401-12.6-96.481z" transform="matrix(.1560549 0 0 -.1560549 29.337076 98.044789)"/><path clip-path="url(#e)" d="m0 0s30.24 48.601 55.08 81c24.84 32.4 55.08 69.48 90.72 105.48s72.36 67.32 109.08 93.6 72 45 94.68 59.04 100.799 63.72 146.52 103.68c0 0 8.64-5.759 8.279-21.96l-42.839-24.84s23.04 1.8 41.04 11.521l-.36-18s-30.6-15.841-73.08-24.121c0 0 37.44 0 67.319 10.44 0 0-1.08-7.92-7.559-16.2 0 0-29.521-20.88-95.76-21.96 0 0 28.8-12.96 82.08 3.24 0 0-9-37.8-42.12-59.399 0 0-25.56-11.161-54.721-14.761 0 0 24.481-1.8 45 3.24 0 0-24.839-14.04-55.079-18.72 0 0 24.84-.36 38.52 2.52 0 0-10.441-17.279-52.2-33.48-41.76-16.2-97.201-25.559-123.48-24.12-26.28 1.441-45 5.76-67.68-6.12 0 0 26.28 5.04 55.8-1.08s55.079-10.439 101.52-2.88c0 0-9-23.399-33.12-41.76-24.12-18.36-57.241-23.4-74.88-28.799-17.64-5.401-28.44-8.641-51.48-10.081s-35.64-4.32-35.64-4.32 23.4 1.08 34.56 0 20.16-3.599 32.04-1.8c11.88 1.8 36.72 9.72 36.72 9.72s-33.84-21.96-68.76-37.08-61.56-23.399-76.32-24.479c-14.76-1.081-35.64-3.601-42.48-6.481s-5.4-6.84.36-5.399c5.76 1.439 25.92 6.839 35.64 4.679s16.56-3.24 28.8-1.799c12.24 1.439 40.32 13.679 50.04 18.719 0 0-20.52-19.439-61.2-33.479s-64.08-13.321-76.68-24.12z" transform="matrix(.1560549 0 0 -.1560549 33.325855 98.775236)"/><path clip-path="url(#f)" d="m0 0c0-52.229 14.04-101.18 38.56-143.27-5.32-18.629-7.92-38.889-9.04-49.95-40.68 53.72-64.8 120.651-64.8 193.22 0 176.951 143.45 320.4 320.4 320.4 67.37 0 129.89-20.79 181.48-56.31-17.45-5.829-36.32-11.13-45.23-13.569-40.48 22.06-86.9 34.6-136.25 34.6-157.47 0-285.12-127.65-285.12-285.121" transform="matrix(.1560549 0 0 -.1560549 19.505617 63.999991)"/><path clip-path="url(#g)" d="m0 0c0-176.949-143.45-320.399-320.4-320.399-70.28 0-135.28 22.629-188.1 60.99l63.85 2.71c37.55-18.21 79.71-28.42 124.25-28.42 157.47 0 285.12 127.649 285.12 285.119 0 21.74-2.43 42.9-7.04 63.24 12.53 16 22.83 25.64 28.42 30.381 9.04-29.61 13.9-61.051 13.9-93.621" transform="matrix(.1560549 0 0 -.1560549 114 63.999991)"/></svg>