<svg height="128" viewBox="0 0 128 128" width="128" xmlns="http://www.w3.org/2000/svg" xmlns:xlink="http://www.w3.org/1999/xlink"><clipPath id="a"><path d="m0 720h864v-720h-864z" transform="translate(-271.04001 -243.75981)"/></clipPath><clipPath id="b"><path d="m0 720h864v-720h-864z" transform="translate(-258.31981 -210.87991)"/></clipPath><clipPath id="c"><path d="m0 720h864v-720h-864z" transform="translate(-221.83981 -187.5996)"/></clipPath><clipPath id="d"><path d="m0 720h864v-720h-864z" transform="translate(-205.9648 -120.0703)"/></clipPath><clipPath id="e"><path d="m0 720h864v-720h-864z" transform="translate(-133.6401 -28.240201)"/></clipPath><clipPath id="f"><path d="m0 720h864v-720h-864z" transform="translate(-309.31981 -115)"/></clipPath><clipPath id="g"><path d="m0 720h864v-720h-864z" transform="translate(-287.2402 -253.7197)"/></clipPath><clipPath id="h"><path d="m0 720h864v-720h-864z" transform="translate(-691.26761 -592.13381)"/></clipPath><path d="m29.866668 0h68.266668a29.866668 29.866668 0 0 1 29.866664 29.866668v68.266668a29.866668 29.866668 0 0 1 -29.866664 29.866664h-68.266668a29.866668 29.866668 0 0 1 -29.866668-29.866664v-68.266668a29.866668 29.866668 0 0 1 29.866668-29.866668z" fill="#fff" height="120" stroke-linecap="round" stroke-linejoin="round" stroke-width="6.42672" width="120" x="4" y="4"/><g fill="#1b1720"><path clip-path="url(#a)" d="m0 0c-4.2 3.36-1.32 10.8-1.32 10.8 8.16-1.8 12.84-12.119 12.84-12.119s-7.32-2.04-11.52 1.319m-1.08 14.641s-4.817-3.48-5.607-12.207c-.245-2.718 1.015-5.36 3.219-6.969l27.343-19.974c2.239-1.636 5.179-1.998 7.726-.9 3.473 1.496 8.024 4.326 10.039 9.329z" transform="matrix(.16278058 0 0 -.16278058 39.366086 80.822848)"/><path clip-path="url(#b)" d="m0 0c-5.4-6.96-16.2-19.8-19.32-21.36s-5.64-.48-5.64-.48l28.32 42c3.6-2.76 5.28-5.76 5.28-5.76s-3.24-7.44-8.64-14.4m.96 27.24 1.68-6.48s-20.52-27.48-24.6-33.36c-4.08-5.879-7.2-7.32-7.2-7.32 14.64-15.84 34.92-25.32 34.92-25.32s.84 5.16 2.4 9.24 22.32 35.88 22.32 35.88l7.56.721c-10.68 8.759-37.08 26.639-37.08 26.639" transform="matrix(.16278058 0 0 -.16278058 37.295484 86.175058)"/><path clip-path="url(#c)" d="m0 0s-4.56-5.52-.96-8.399c3.6-2.88 27-20.76 30.96-24 3.96-3.241 8.28-3.601 11.16 3.359 0 0-1.56 2.761-14.88 11.52-13.32 8.76-26.28 17.52-26.28 17.52" transform="matrix(.16278058 0 0 -.16278058 31.357248 89.964638)"/><path clip-path="url(#d)" d="m0 0c1.003-1.438 1.595-3.185 1.595-5.07 0-4.905-3.975-8.88-8.88-8.88-1.697 0-3.278.484-4.626 1.31-3.397-3.602-13.685-14.645-21.294-24.23-8.566-10.792-24.345-30.446-31-41.097-.903-1.494-1.4-2.344-1.4-2.344.403.718.876 1.506 1.4 2.344 3.086 5.107 10.971 17.819 20.44 30.536 10.663 14.323 26.421 31.736 30.306 35.986-1.666 1.614-2.706 3.872-2.706 6.375 0 4.904 3.976 8.88 8.88 8.88 2.308 0 4.404-.888 5.983-2.331 3.096 4.507 15.827 22.824 25.457 33.291 0 0-16.97-23.264-24.155-34.77m-34.525 10.89c3.12 2.28 13.32 9 21.72 15.12s19.08 14.639 24.84 20.28c0 0 3.24-2.16 5.88-5.52 0 0-11.64-10.92-22.08-17.76s-21.36-12.84-25.2-14.76-4.68-2.641-5.16-5.4c-.48-2.76-1.56-5.76-1.56-5.76s.36 3.12-.12 7.08-1.44 4.439 1.68 6.72m48.48 41.88s-3.96-7.92-20.64-19.8-33.48-23.04-33.48-23.04-.48-17.16-4.44-33.361c-3.96-16.199-22.44-58.559-27.72-68.399 0 0 17.88 23.64 36.12 37.439 18.24 13.801 33.6 16.801 52.2 17.281 0 0 2.88 13.44 9.72 33.599 6.84 20.16 11.04 31.441 16.92 34.921 0 0-16.56 15-28.68 21.36" transform="matrix(.16278058 0 0 -.16278058 28.773106 100.957098)"/><path clip-path="url(#e)" d="m0 0s25.92 1.319 48 2.279c22.08.961 64.08-.239 78.96-.719s64.56 0 64.56 0 2.88-1.201-3.84-1.44c-6.72-.24-84.48 0-107.28-.721-22.8-.719-68.88.721-80.4.601" transform="matrix(.16278058 0 0 -.16278058 17.000049 115.905255)"/><path clip-path="url(#f)" d="m0 0s16.32 19.44 47.76 41.04 72.72 37.68 93.12 45.36 62.161 23.28 90.241 35.28c28.079 12 41.241 16.431 72.96 41.28 26.04 20.4 39.843 42.394 45.839 59.76 6.96 20.16 8.161 41.04 1.68 62.64-6.479 21.6-21.6 40.08-48.72 42-19.486 1.38-45.12-8.88-54.719-31.2-9.601-22.32.178-46.907 13.92-54.72 12.239-6.96 25.919-6.72 34.559 1.2s6.96 18.24 3.36 25.2-12.72 8.16-20.4 3.36c0 0 4.08 5.76 13.92 5.28s16.08-9.109 16.08-19.92c0-14.4-11.519-25.68-29.04-26.4-17.519-.72-30.479 10.08-37.2 24-6.72 13.92-6.72 31.68 1.44 48.24s28.49 31.44 54.48 31.44c29.28 0 48.345-12.181 60-33.36 11.16-20.28 9.72-45.12 6.96-59.76-3.239-17.178-8.64-33.84-24.48-53.52-13.243-16.454-34.335-35.31-59.52-50.4-27.84-16.68-46.56-23.04-73.68-33.36-23.407-8.908-72.24-24.96-92.16-32.16s-51.12-21.36-66.24-30.96-36.48-27.84-50.16-40.32" transform="matrix(.16278058 0 0 -.16278058 45.597294 101.782444)"/><path clip-path="url(#g)" d="m0 0s22.8 36.24 41.28 65.28 49.92 72.241 72 99.36c22.08 27.12 53.039 57.84 74.159 76.32 21.121 18.48 80.641 66.96 129.361 88.8 0 0-55.92-30.48-95.28-64.56s-71.28-65.52-93.84-93.36-55.68-76.8-71.04-103.199c-15.36-26.401-38.64-64.561-44.64-78.241z" transform="matrix(.16278058 0 0 -.16278058 42.003163 79.20157)"/><path clip-path="url(#h)" d="m0 0c2.903.868 5.139 1.878 6.731 2.461 1.585.609 2.461.945 2.461.945s-.845-.405-2.376-1.138c-1.545-.7-3.722-1.869-6.585-2.902-5.622-2.297-13.731-4.846-22.987-5.99-9.245-1.192-17.733-.876-23.758-.031-6.046.78-9.633 1.961-9.633 1.961s3.671-.851 9.704-1.29c6.021-.503 14.393-.477 23.513.699 9.131 1.127 17.221 3.316 22.93 5.285m-33.522-16.49c-.733-.183-1.798-.418-3.129-.633-2.659-.452-6.382-.835-10.497-.796-4.118.026-7.823.468-10.482.878-2.66.418-4.277.827-4.277.827s6.646-.289 14.77-.355c4.065-.038 7.744.004 10.415.117 1.337.046 2.419.113 3.167.171.751.043 1.167.067 1.167.067s-.404-.098-1.134-.276m-32.461-17.613c3.518-.18 5.696-.291 5.696-.291s-.544-.044-1.527-.125c-.985-.064-2.41-.207-4.175-.259-3.528-.15-8.427-.141-13.802.446-5.378.57-10.168 1.725-13.535 2.819-1.683.558-3.019 1.079-3.921 1.487-.904.405-1.381.672-1.381.672s.513-.191 1.454-.475c.941-.286 2.319-.643 4.027-1.033 3.424-.759 8.193-1.565 13.505-2.128 5.309-.58 10.146-.925 13.659-1.113m17.943-10.747c5.838.32 11.067 1.053 15.407 1.924 4.342.867 7.794 1.869 10.144 2.661 2.351.792 3.601 1.371 3.601 1.371s-1.212-.655-3.529-1.568c-2.313-.915-5.733-2.084-10.071-3.123-4.334-1.043-9.588-1.951-15.475-2.401-5.884-.467-12.402-.46-19.183.083-13.583 1.072-25.649 3.722-34.252 5.949-8.613 2.247-13.79 4.12-13.79 4.12s5.28-1.551 13.947-3.463c8.663-1.895 20.728-4.197 34.199-5.26 6.733-.539 13.164-.629 19.002-.293m-17.368-10.409c-.724-.048-1.61-.107-2.637-.175-1.03-.008-2.203-.018-3.5-.029-5.186.018-12.367.591-20.151 2.066-7.783 1.479-14.67 3.505-19.586 5.129-4.915 1.643-7.865 2.894-7.865 2.894s12.259-3.754 27.703-6.696c7.72-1.463 14.781-2.364 19.924-2.718 1.289-.081 2.453-.154 3.476-.219 1.024-.016 1.907-.03 2.629-.041 1.447-.03 2.247-.046 2.247-.046s-.798-.058-2.24-.165m-47.363-22.347c2.248-.475 4.075-.817 5.34-1.048 1.264-.244 1.963-.38 1.963-.38s-.709.061-1.991.171c-1.284.106-3.141.281-5.424.591-4.57.585-10.858 1.658-17.687 3.34-6.834 1.667-12.9 3.623-17.245 5.143-4.348 1.524-6.972 2.635-6.972 2.635s10.945-3.144 24.539-6.467c6.795-1.674 12.976-3.069 17.477-3.985m19.282-10.211c1.418.077 2.635.201 3.635.27 2 .15 3.106.233 3.106.233s-1.098-.158-3.082-.443c-.995-.132-2.21-.33-3.629-.486-1.425-.093-3.047-.199-4.841-.316-7.179-.35-17.165.097-27.998 1.891-10.826 1.836-20.421 4.472-27.261 6.64-6.84 2.188-10.949 3.874-10.949 3.874s4.223-1.368 11.139-3.227c6.919-1.839 16.543-4.133 27.293-5.956 10.757-1.78 20.612-2.557 27.761-2.547 1.788.025 3.406.047 4.826.067m-27.394-9.611c-1.464.097-3.585.238-6.197.496-5.229.482-12.439 1.347-20.331 2.733-7.896 1.373-14.971 2.995-20.06 4.286-5.091 1.284-8.197 2.239-8.197 2.239s12.746-2.472 28.489-5.195c7.869-1.381 15.005-2.577 20.183-3.394 5.183-.81 8.389-1.311 8.389-1.311s-.811.052-2.276.146m-59.068-18.428c7.972-.578 15.204-.924 20.448-1.093 2.622-.114 4.745-.136 6.214-.178 1.469-.043 2.281-.067 2.281-.067s-.81-.051-2.277-.144c-1.467-.084-3.591-.231-6.22-.286-5.255-.169-12.533-.159-20.542.421-8.01.568-15.219 1.562-20.398 2.471-5.184.892-8.342 1.678-8.342 1.678s3.22-.454 8.435-1.009c5.215-.574 12.427-1.228 20.401-1.793m33.514-7.031c.905.14 1.765.274 2.58.4.809.151 1.566.327 2.278.472 1.424.297 2.649.554 3.651.763 2.009.411 3.12.638 3.12.638s-1.092-.3-3.069-.843c-.99-.268-2.202-.595-3.609-.975-.705-.184-1.455-.4-2.26-.592-.81-.166-1.665-.342-2.565-.526-1.799-.36-3.769-.778-5.894-1.171-2.142-.297-4.43-.613-6.838-.946-2.413-.293-4.967-.42-7.605-.638-2.644-.138-5.389-.143-8.197-.174-11.244.215-21.348 1.973-28.393 4.068-3.545.979-6.322 2.067-8.227 2.823-1.897.786-2.902 1.314-2.902 1.314s4.182-1.81 11.301-3.484c7.088-1.757 17.12-3.157 28.241-3.37 2.779.03 5.497.014 8.117.114 2.616.18 5.15.252 7.552.48 2.399.256 4.68.498 6.815.726 2.122.331 4.1.64 5.904.921m-33.747-13.956c-1.054-.118-2.581-.347-4.478-.468-3.788-.332-9.063-.511-14.865-.099-5.802.425-11.004 1.346-14.698 2.267-3.703.899-5.903 1.749-5.903 1.749s2.294-.524 6.034-1.087c3.738-.585 8.923-1.162 14.662-1.582 5.741-.408 10.96-.567 14.745-.574 3.792.002 6.139.003 6.139.003s-.582-.074-1.636-.209m-36.513-20.687c7.661.265 14.596.801 19.6 1.391 2.513.222 4.526.556 5.931.705 1.402.167 2.179.26 2.179.26s-.764-.166-2.143-.468c-1.385-.273-3.374-.775-5.871-1.166-4.971-.926-11.927-1.804-19.655-2.072-7.731-.231-14.737.303-19.744 1.031-2.507.355-4.517.761-5.898 1.061-1.38.314-2.13.534-2.13.534s.77-.138 2.167-.326c1.4-.175 3.424-.412 5.935-.598 5.017-.389 11.966-.582 19.629-.352m36.622-1.747c.865.262 1.667.555 2.425.804 1.513.507 2.818.944 3.883 1.301 2.138.707 3.32 1.098 3.32 1.098s-1.157-.461-3.245-1.295c-1.048-.414-2.329-.92-3.818-1.507-.747-.287-1.537-.62-2.392-.922-.863-.282-1.775-.58-2.732-.894-1.919-.616-4.012-1.326-6.282-2.011-2.296-.597-4.749-1.235-7.331-1.906-2.596-.617-5.358-1.101-8.206-1.68-1.425-.285-2.898-.437-4.381-.663-1.488-.199-2.992-.44-4.524-.606-12.272-1.278-23.506-.813-31.479.415-3.999.539-7.184 1.29-9.371 1.818-2.184.559-3.359.971-3.359.971s4.822-1.326 12.813-2.119c7.973-.887 19.095-1.008 31.25.258 1.518.164 3.011.398 4.486.585 1.472.215 2.935.351 4.352.615 2.83.539 5.581.967 8.172 1.517 2.584.594 5.039 1.158 7.337 1.686 2.278.605 4.386 1.231 6.321 1.765.968.27 1.889.527 2.761.77m-46.103-21.831c-1.001-.228-2.445-.595-4.252-.931-3.601-.732-8.63-1.536-14.232-1.932-5.603-.391-10.696-.32-14.366-.071-3.673.232-5.92.608-5.92.608s2.274-.039 5.932.067c3.66.089 8.701.355 14.258.743 5.558.392 10.586.856 14.228 1.253 3.646.393 5.902.637 5.902.637s-.552-.133-1.55-.374m-46.662-28.952c7.914-.048 18.852.376 30.819 1.892 11.961 1.495 22.611 4.056 30.171 6.376 7.574 2.304 12.063 4.318 12.063 4.318s-4.346-2.321-11.852-4.959c-7.484-2.652-18.149-5.567-30.214-7.075-12.049-1.526-23.076-1.613-31.005-1.227-7.94.376-12.789 1.201-12.789 1.201s4.889-.489 12.807-.526m51.195-5.587c-7.876-2.905-19.12-6.387-32.012-7.477-12.843-1.011-24.501-.411-32.876.288-8.385.721-13.514 1.602-13.514 1.602s5.173-.546 13.558-.929c8.378-.361 19.989-.619 32.722.385 12.706 1.072 23.941 4.191 31.9 6.768 7.971 2.611 12.72 4.756 12.72 4.756s-4.603-2.451-12.498-5.393m-29.082-17.825c-.639-.169-1.421-.376-2.33-.616-.913-.219-1.96-.436-3.116-.689-4.626-.984-11.11-1.983-18.322-2.421-7.211-.462-13.756-.273-18.473-.007-4.721.277-7.619.671-7.619.671s11.69-.211 26.01.683c7.16.436 13.624 1.091 18.289 1.739 1.166.164 2.222.312 3.148.443.923.157 1.718.293 2.368.403 1.303.214 2.024.332 2.024.332s-.704-.191-1.979-.538m-47.978-31.7c6.284.012 11.976.239 16.098.49 4.126.265 6.679.428 6.679.428s-.63-.115-1.768-.323c-1.142-.194-2.79-.52-4.846-.777-4.102-.587-9.821-1.156-16.157-1.168-6.336-.016-12.063.474-16.168 1.069-4.111.571-6.601 1.199-6.601 1.199s2.547-.294 6.668-.527c4.119-.258 9.812-.407 16.095-.391m36.629-3.658c3.701 1.185 6.555 2.51 8.578 3.305 2.016.818 3.131 1.271 3.131 1.271s-1.084-.521-3.044-1.464c-1.975-.911-4.769-2.394-8.427-3.744-7.195-2.967-17.548-6.287-29.361-7.983-1.476-.202-2.935-.402-4.373-.598-1.439-.182-2.868-.265-4.266-.395-2.796-.289-5.509-.331-8.087-.431-5.16-.069-9.808.086-13.689.47-3.886.327-7.004.826-9.146 1.21-2.143.386-3.307.695-3.307.695s1.182-.227 3.339-.486 5.284-.588 9.16-.746c3.872-.213 8.492-.199 13.607-.005 2.555.164 5.241.256 8.009.58 1.384.147 2.799.244 4.224.433 1.424.2 2.868.403 4.33.608 11.697 1.679 22.036 4.64 29.322 7.28m-38.799-20.688c-1-.26-2.44-.676-4.251-1.054-3.605-.825-8.656-1.733-14.298-2.138-5.641-.415-10.772-.298-14.461.011-3.693.287-5.943.725-5.943.725s2.286-.102 5.966-.05c3.681.029 8.753.25 14.337.66 5.586.402 10.632.967 14.282 1.456 1.831.211 3.301.461 4.325.596 1.024.141 1.59.218 1.59.218s-.551-.151-1.547-.424m-39.917-33.686c8.502 1.075 16.248 1.507 21.734 2.492 2.746.481 4.932 1.083 6.429 1.542 1.495.474 2.321.736 2.321.736s-.79-.357-2.252-.935c-1.46-.58-3.613-1.351-6.36-2.003-5.503-1.332-13.237-2.1-21.708-3.172-4.254-.505-8.254-1.025-11.852-1.81-3.596-.766-6.771-1.737-9.348-2.784-2.579-1.043-4.554-2.156-5.832-3.049-1.28-.897-1.867-1.546-1.867-1.546s.521.704 1.739 1.712c1.215 1.006 3.132 2.284 5.687 3.5 2.551 1.221 5.735 2.373 9.362 3.277 3.622.921 7.706 1.537 11.947 2.04m330.604 369.707c-1.226-.666-3.057-1.508-5.224-2.735-4.401-2.321-10.337-5.777-16.668-9.921-6.319-4.162-11.757-8.349-15.52-11.592-1.881-1.621-3.343-3.004-4.342-3.975-.987-.982-1.505-1.554-1.505-1.554s.453.625 1.35 1.697c.909 1.06 2.258 2.571 4.039 4.328 3.557 3.513 8.851 8.019 15.235 12.223 6.393 4.185 12.546 7.373 17.11 9.398 2.251 1.081 4.157 1.772 5.438 2.323 1.293.522 2.007.811 2.007.811s-.683-.357-1.92-1.003m-50.067-17.656c-3.354-3.653-6.277-7.037-8.704-9.906-4.846-5.743-7.709-9.415-7.709-9.415s2.591 3.871 7.184 9.839c2.3 2.981 5.103 6.485 8.381 10.241 3.289 3.746 7.021 7.782 11.371 11.601 4.398 3.781 8.956 6.858 13.167 9.53 4.225 2.649 8.137 4.85 11.456 6.631 6.642 3.552 10.901 5.438 10.901 5.438s-4.11-2.189-10.569-6.026c-3.227-1.923-7.038-4.26-11.17-7-4.113-2.758-8.591-5.887-12.899-9.591-4.277-3.755-8.046-7.703-11.409-11.342m-23.793-20.761s2.175 4.319 6.237 10.999c2.034 3.338 4.539 7.266 7.534 11.488 3.001 4.214 6.475 8.748 10.618 13.095 4.132 4.372 8.71 7.9 13.101 10.664 4.408 2.758 8.631 4.79 12.242 6.303 3.615 1.511 6.629 2.496 8.726 3.112 2.099.614 3.282.859 3.282.859s-1.164-.327-3.217-1.06c-2.052-.734-4.996-1.875-8.518-3.528-3.517-1.656-7.62-3.818-11.897-6.643-4.269-2.838-8.687-6.349-12.743-10.64-4.077-4.277-7.589-8.719-10.674-12.833-3.079-4.122-5.714-7.942-7.885-11.18-4.335-6.481-6.806-10.636-6.806-10.636m-17.64-6.66s5.037 8.497 12.062 18.421c3.513 4.961 6.864 9.333 9.361 12.442 2.496 3.112 4.137 4.957 4.137 4.957s-1.373-2.048-3.593-5.357c-2.222-3.305-5.294-7.866-8.803-12.823-7.018-9.913-13.164-17.64-13.164-17.64m-39.139-20.161c-3.984-9.009-6.04-14.759-6.04-14.759s1.735 5.858 5.419 15.021c3.696 9.14 9.313 21.653 17.447 34.398 8.115 12.759 17.343 22.989 24.545 29.735 3.599 3.388 6.696 5.923 8.886 7.602 2.188 1.683 3.463 2.524 3.463 2.524s-1.226-.91-3.331-2.688c-2.106-1.775-5.083-4.429-8.547-7.922-6.939-6.963-15.829-17.322-23.88-29.98-8.068-12.64-13.962-24.942-17.962-33.931m-17.74-19.799s.779 5.694 3.401 14.596c2.613 8.877 7.125 21 14.444 33.18 7.359 12.129 15.533 22.105 22.03 28.721 3.242 3.318 6.05 5.813 8.051 7.458 2.002 1.648 3.194 2.445 3.194 2.445s-1.143-.866-3.055-2.604c-1.914-1.737-4.596-4.346-7.699-7.762-6.218-6.812-14.07-16.93-21.363-28.953-7.245-12.053-12.033-23.943-14.958-32.687-2.932-8.761-4.045-14.394-4.045-14.394m-5.996 19.469c-3.806-10.5-6.245-19.289-6.245-19.289s.275 2.268 1.039 5.878c.772 3.605 2.006 8.568 3.935 13.869 1.91 5.308 4.14 9.923 5.949 13.141.457.802.862 1.533 1.241 2.16.393.619.731 1.152 1.007 1.588.56.865.869 1.344.869 1.344s-.244-.515-.684-1.447c-.224-.463-.497-1.029-.815-1.686-.298-.666-.638-1.424-1.014-2.262-1.498-3.35-3.392-8.04-5.282-13.296m-18.398-2.716c-.283-.921-.768-2.223-1.217-3.88-.995-3.279-2.187-7.855-3.091-12.981-.916-5.121-1.442-9.816-1.613-13.237-.202-3.421-.105-5.555-.105-5.555s-.434 2.099-.57 5.559c-.167 3.454.028 8.264.96 13.474.919 5.213 2.46 9.775 3.783 12.963.612 1.614 1.256 2.86 1.658 3.736.418.868.648 1.348.648 1.348s-.161-.508-.453-1.427m-21.028-6.283c-5.195-14.904-8.754-28.781-10.422-38.991-.86-5.1-1.288-9.272-1.45-12.162-.067-1.446-.121-2.57-.115-3.333-.007-.763-.011-1.164-.011-1.164s-.017.401-.046 1.163c-.044.764-.042 1.89-.039 3.342.036 2.902.296 7.105.994 12.254 1.34 10.306 4.594 24.36 9.813 39.334 2.593 7.525 5.901 14.367 9.206 20.391 3.32 6.022 6.678 11.227 9.635 15.494 2.96 4.266 5.525 7.594 7.337 9.859 1.815 2.264 2.879 3.463 2.879 3.463s-4.024-5.009-9.655-13.698c-2.808-4.346-6.006-9.617-9.193-15.659-3.173-6.044-6.371-12.854-8.933-20.293m-20.104-29.542c-1.124-5.843-1.97-11.14-2.628-15.597-1.304-8.916-1.867-14.471-1.867-14.471s.226 5.58 1.197 14.557c.492 4.487 1.173 9.823 2.178 15.714 1.012 5.887 2.329 12.34 4.265 18.981 3.903 13.315 9.848 24.431 14.363 32.226 4.566 7.799 7.877 12.302 7.877 12.302s-3.03-4.694-7.288-12.631c-4.209-7.94-9.806-19.131-13.656-32.276-1.915-6.572-3.309-12.967-4.441-18.805m-6.285 24.193c-.221-.729-.535-1.605-.824-2.646-.284-1.042-.609-2.228-.966-3.539-1.365-5.261-2.902-12.606-4.223-20.79-2.644-16.366-3.896-29.806-3.896-29.806s-.016 3.375.286 8.824c.306 5.446.951 12.968 2.277 21.199 1.328 8.232 3.21 15.57 4.909 20.763.447 1.29.851 2.458 1.207 3.483.366 1.021.751 1.876 1.032 2.585.585 1.407.908 2.186.908 2.186s-.253-.804-.71-2.259m10.156 15.694c.685 1.821 1.737 4.306 3.225 6.882 1.483 2.578 3.118 4.739 4.402 6.208.638.739 1.188 1.306 1.581 1.685.391.38.607.59.607.59s-.157-.257-.443-.722c-.293-.456-.706-1.122-1.2-1.951-.999-1.651-2.317-3.948-3.777-6.484-2.969-5.078-5.381-9.203-5.381-9.203s.306 1.17.986 2.995m-43.459-26.584c-1.86-4.669-3.821-10.328-5.581-16.726-1.777-6.393-3.222-13.545-4.374-21.123-2.275-15.16-3.001-29.065-3.021-39.118-.012-5.029.163-9.099.354-11.907.088-1.405.188-2.493.267-3.231.071-.738.108-1.126.108-1.126s-.057.386-.166 1.119c-.115.733-.268 1.817-.419 3.219-.318 2.801-.662 6.872-.819 11.916-.317 10.078.072 24.075 2.361 39.33 1.157 7.617 2.7 14.827 4.614 21.234 1.895 6.411 4.028 12.048 6.052 16.672 4.042 9.263 7.457 14.51 7.457 14.51s-3.122-5.42-6.833-14.769m5.348-67.671c-.395 2.016-.812 4.826-1.009 7.944-.4 6.24.155 11.316.155 11.316s.794-5.028 1.192-11.228c.196-3.102.275-5.915.333-7.957.058-2.046.095-3.315.095-3.315s-.366 1.222-.766 3.24m-27.746 19.977c-1.504-12.604-1.703-24.123-1.425-32.444.264-8.328.957-13.453.957-13.453s-1.028 5.074-1.631 13.417c-.617 8.329-.757 19.944.759 32.636 1.468 12.654 3.607 24.099 6.572 31.97 1.438 3.942 3.055 6.954 4.358 8.897.669.962 1.192 1.703 1.594 2.17.385.479.587.73.587.73s-.186-.263-.541-.765c-.371-.489-.85-1.258-1.461-2.246-1.189-1.999-2.635-5.053-3.899-9.008-2.616-7.893-4.405-19.291-5.87-31.904m-12.302 2.282c-.219-.887-.486-1.971-.797-3.229-.235-1.275-.502-2.726-.798-4.331-1.125-6.423-2.003-15.396-2.135-25.338-.118-9.944.414-18.952.944-25.461.561-6.508 1.12-10.52 1.12-10.52s-.892 3.953-1.79 10.446c-.868 6.489-1.743 15.531-1.624 25.552.132 10.021 1.359 19.06 2.823 25.453.388 1.594.738 3.035 1.046 4.301.393 1.241.732 2.311 1.009 3.185.563 1.74.875 2.703.875 2.703s-.239-.983-.673-2.761m-34.294-15.549c-.99-2.666-2.239-6.592-3.438-11.527-1.2-4.933-2.336-10.878-3.155-17.537-.836-6.653-1.278-14.027-1.518-21.776-.479-15.494.297-29.542 1.639-39.616.651-5.04 1.434-9.084 2.056-11.859.292-1.393.578-2.46.763-3.186.184-.727.281-1.109.281-1.109s-.117.376-.337 1.093-.557 1.771-.912 3.152c-.746 2.75-1.697 6.774-2.519 11.81-1.683 10.063-2.802 24.183-2.32 39.756.24 7.779.77 15.194 1.738 21.885.95 6.689 2.26 12.641 3.631 17.558 1.37 4.919 2.784 8.807 3.894 11.433 1.102 2.631 1.864 4.013 1.864 4.013s-.686-1.42-1.667-4.09m-17.282-30.064c-.123-.855-.323-1.891-.47-3.109-.145-1.216-.31-2.602-.492-4.133-.659-6.133-1.21-14.632-1.43-24.038-.446-18.811.101-34.106.101-34.106s-.464 3.798-.889 9.971c-.423 6.171-.782 14.721-.561 24.169.22 9.448 1.113 17.982 2.11 24.094.274 1.524.522 2.903.739 4.113.226 1.209.499 2.235.685 3.08.397 1.683.617 2.613.617 2.613s-.146-.945-.41-2.654m-19.405-100.738c-1.132 3.436-2.557 8.239-3.667 13.658-1.109 5.419-1.657 10.414-1.837 14.033-.035.906-.068 1.725-.095 2.444.003.72.007 1.34.009 1.847.016 1.011.024 1.57.024 1.57s.067-.555.187-1.56c.056-.501.125-1.114.205-1.826.101-.709.215-1.517.342-2.409.514-3.565 1.388-8.453 2.488-13.828 2.204-10.746 4.338-19.437 4.338-19.437s-.854 2.071-1.994 5.508m-21.406-61.127s-.072.779-.312 2.169c-.239 1.389-.646 3.388-1.256 5.831-.614 2.441-1.424 5.325-2.427 8.496-1.039 3.169-2.18 6.651-3.379 10.307-2.4 7.334-4.025 14.188-4.708 19.213-.345 2.513-.52 4.556-.6 5.969-.063 1.413-.097 2.194-.097 2.194s.109-.773.306-2.173c.206-1.396.548-3.408 1.055-5.873 1.012-4.936 2.937-11.604 5.33-18.917 1.177-3.663 2.294-7.166 3.185-10.397.89-3.232 1.543-6.184 1.994-8.678.45-2.496.692-4.535.806-5.946.116-1.412.103-2.195.103-2.195m-9.719 79.818c.094 4.296.36 6.941.36 6.941s.315-10.617 1.597-23.585c.625-6.487 1.386-12.338 2.069-16.563.321-2.116.638-3.819.864-4.997.212-1.182.329-1.835.329-1.835s-.19.636-.534 1.786c-.349 1.149-.832 2.82-1.321 4.914-1.018 4.175-2.121 10.03-2.751 16.565-.65 6.532-.703 12.481-.613 16.774m419.939 273.881c-6.66 3.78-21.779 10.98-39.42 11.7-17.639.72-33.479-3.96-45.179-14.22-11.701-10.26-28.081-30.24-33.84-39.24-5.761-9-19.981-25.92-19.981-25.92s5.401 7.02 9.54 16.56c4.141 9.54 10.441 20.88 18.901 34.92s27.179 25.02 27.179 25.02c-32.759-6.48-54-13.68-67.32-24.48-13.319-10.8-27.899-26.64-37.619-50.94-9.721-24.3-12.24-43.56-12.24-43.56-5.76 21.78 4.139 47.88 9.719 63.54s16.56 25.56 16.56 25.56c-23.039-9.9-44.819-20.34-59.76-35.1-14.939-14.76-26.099-34.2-30.059-56.16s-5.58-52.02-5.58-52.02c-7.92 33.12-5.76 46.62-2.34 64.62s9.899 28.26 9.899 28.26c-25.019-18.9-47.34-38.16-55.62-56.34-8.279-18.18-11.7-33.66-12.6-54.54s.54-52.38.54-52.38-5.219 16.2-8.28 29.16c-3.059 12.96-5.579 28.44-4.32 44.1 1.261 15.66 6.48 26.82 6.48 26.82-16.56-15.3-38.52-46.44-44.82-63.36s-7.74-29.7-5.939-52.56c1.799-22.86 11.699-47.88 11.699-47.88s-6.48 14.58-10.8 26.46c-4.319 11.88-6.839 20.7-7.739 33.3-.901 12.6.539 27.54.539 27.54-3.239-5.04-5.76-10.98-8.639-28.08-2.881-17.1-1.261-31.32.179-49.32s5.58-38.52 5.58-38.52c-3.06 11.52-9.18 22.861-11.88 30.96-2.7 8.1-5.399 19.98-5.939 36.9s1.98 25.92 1.98 25.92c-4.141-5.76-9.181-17.1-12.601-36.54-3.419-19.44-1.259-21.419-1.98-36.18-.72-14.76 1.081-14.22 2.7-25.739 1.62-11.521 3.78-25.381 3.78-25.381-2.7 15.66-7.919 26.64-16.2 30.6-8.28 3.96-10.619-3.06-10.619-3.06 5.94-1.619 13.859-7.199 18-18.54 4.139-11.34 5.4-24.84 5.4-24.84-12.061 36-26.641 15.84-26.641 15.84 4.681 4.14 9.9 3.6 15.661-7.38 5.759-10.98 6.299-25.199 6.299-25.199s13.5 24.479 21.241 36.899c7.739 12.42 27 41.76 36 54.72s28.259 40.68 39.779 53.82 35.64 41.4 50.58 56.34c14.941 14.94 41.04 38.16 54.72 49.14 13.681 10.98 52.74 39.96 71.46 51.3 18.721 11.34 56.16 30.6 73.08 38.7s63.721 27.9 63.721 27.9-14.221-7.38-29.521-15.12c-15.299-7.74-44.099-21.78-67.679-36s-45.361-28.8-59.401-39.42-44.099-35.46-59.399-49.86c-15.301-14.4-41.761-41.22-54.001-56.52-12.239-15.3-36-46.98-47.16-64.26-11.159-17.28-37.44-59.759-51.119-83.7-13.681-23.939-21.781-41.76-21.781-41.76l2.701-1.98c16.919 7.74 40.319 9.36 47.16 7.2 6.84-2.16 3.96-7.56 3.96-7.56s5.759 1.8 3.779 6.84-5.939 8.1-17.279 8.821c-11.341.719-24.301-4.141-24.301-4.141 9.181 7.561 19.44 8.101 31.141 10.62 11.7 2.521 25.56 3.24 41.04 11.7s25.379 19.98 25.379 19.98c-7.02-5.04-14.219-8.1-34.74-8.279-20.519-.181-40.139 1.62-40.139 1.62s32.58 1.799 53.46 8.46c20.879 6.659 37.259 18 47.16 28.799 9.899 10.8 23.04 29.52 23.04 29.52-9.181-6.66-20.88-11.7-39.421-13.14-18.54-1.44-45.719 3.96-45.719 3.96s19.98 0 43.919 4.321c23.94 4.319 42.66 15.119 54 27.179 11.341 12.06 23.761 29.88 23.761 29.88-9.361-6.84-15.84-9.54-44.641-9.54-28.8 0-40.499 5.76-40.499 5.76 44.999-.54 67.859 7.02 81.9 14.76 14.04 7.74 23.4 19.62 23.4 19.62l8.64 7.92c-10.081-2.7-16.38-3.6-35.46-1.44s-34.92 8.82-34.92 8.82 34.74-3.24 54.899-.9c20.16 2.34 36.36 12.96 45 18.9 8.641 5.94 21.601 13.68 21.601 13.68-10.8-2.7-18.361-2.16-39.061 1.44-20.699 3.6-41.399 10.08-41.399 10.08 17.819 3.06 35.639-.9 54.359-3.06 18.721-2.16 36.36-.54 55.44 10.08 19.081 10.62 28.26 19.26 28.26 19.26-14.04-6.84-27.179-4.86-42.84-.18-15.66 4.68-34.74 13.32-34.74 13.32 16.2.9 42.481-3.6 58.141-3.24 15.659.36 33.119 5.94 46.08 16.56 12.96 10.62 25.38 25.92 25.38 25.92-25.38-15.3-48.96-9.36-59.04-7.02s-21.42 4.14-21.42 4.14c14.76-.72 46.26-1.62 64.979 4.5 18.72 6.12 27.361 23.04 27.361 23.04 4.859 5.4 6.12 9.9 6.12 9.9-13.321-11.7-31.861-12.96-31.861-12.96 15.661 4.14 28.081 10.08 32.22 16.2 4.141 6.12 6.3 14.58 6.481 22.68.179 8.1.179 11.7-6.481 15.48" transform="matrix(.16278058 0 0 -.16278058 107.77098 24.114324)"/></g></svg>